<?xml version="1.0" encoding="utf-8"?>
<svg version="1.0" xmlns="http://www.w3.org/2000/svg" width="1877.333.000000pt" height="1365.333" viewBox="0 0 868.91 237.664" xmlns:bx="https://boxy-svg.com">
  <defs>
    <bx:export>
      <bx:file format="svg" href="#object-0"/>
    </bx:export>
  </defs>
  <path fill="#2D6A4F" d="M 166.994 53.939 L 167.194 108.473 L 182.194 108.806 L 197.194 109.139 L 192.194 112.473 C 189.461 114.273 183.194 118.606 178.327 122.006 L 169.46 128.206 L 156.327 130.939 C 149.127 132.406 143.127 133.606 143.127 133.673 C 143.06 133.739 141.46 136.673 139.527 140.139 C 137.594 143.605 135.727 146.873 135.327 147.273 C 134.927 147.872 132.66 144.739 127.66 136.273 C 123.794 129.806 117.86 119.939 114.394 114.473 C 110.994 108.939 108.127 104.206 107.994 103.873 C 107.727 103.139 96.86 106.339 65.527 116.139 C 45.594 122.406 35.46 125.473 34.46 125.473 C 33.994 125.473 32.927 126.739 32.127 128.273 C 30.86 130.806 21.527 147.673 5.394 176.673 C 2.46 181.939 0.194 186.339 0.327 186.473 C 0.394 186.539 3.527 187.273 7.194 188.073 C 10.86 188.805 18.794 190.473 24.86 191.805 C 30.926 193.138 42.327 195.538 50.194 197.206 C 58.06 198.805 64.994 200.339 65.66 200.539 C 66.46 200.806 67.594 199.271 70.394 194.005 C 77.66 180.206 84.86 166.872 90.46 156.805 C 93.594 151.138 96.26 146.206 96.394 145.872 C 96.528 145.539 101.394 148.539 107.26 152.605 C 113.06 156.605 120.527 161.538 123.727 163.472 C 129.46 166.872 129.66 167.072 129.26 169.005 C 128.594 172.273 130.127 172.605 113.194 165.138 C 107.727 162.672 102.26 160.271 101.06 159.738 L 98.994 158.806 L 93.46 169.339 C 90.46 175.072 86.727 182.072 85.194 184.806 C 83.661 187.54 80.194 194.006 77.527 199.139 C 74.86 204.272 69.26 214.872 64.994 222.672 C 60.794 230.472 57.527 237.006 57.66 237.206 C 58.26 237.739 98.86 192.939 106.527 183.272 C 107.66 181.939 108.994 180.806 109.527 180.806 C 110.06 180.806 114.727 183.472 119.86 186.739 L 129.194 192.606 L 140.06 181.873 L 150.86 171.139 L 150.86 188.139 L 162.594 188.139 L 164.727 195.939 C 168.194 208.472 177.06 235.472 177.727 235.472 C 178.127 235.472 178.26 231.672 177.994 225.272 C 177.327 210.539 175.46 179.406 175.127 177.606 C 174.86 176.339 174.394 176.139 171.66 176.073 C 169.927 176.073 167.394 175.872 165.994 175.606 L 163.394 175.139 L 164.727 173.472 C 165.46 172.539 169.594 169.206 173.994 166.139 C 178.327 163.072 183.127 159.539 184.727 158.272 C 188.06 155.539 188.06 155.472 185.86 165.672 C 184.06 174.072 182.127 185.606 182.46 185.939 C 182.66 186.206 194.86 183.472 205.794 180.739 C 210.127 179.672 213.794 178.872 213.927 178.939 C 214.46 179.539 230.994 207.739 232.46 210.672 C 233.393 212.539 234.993 214.606 235.993 215.339 C 238.727 217.272 248.327 222.872 248.527 222.672 C 248.66 222.539 247.26 220.272 245.527 217.539 C 240.393 209.806 234.793 197.739 228.793 181.472 C 225.793 173.206 223.193 166.339 223.127 166.206 C 222.993 166.072 218.26 166.806 212.527 167.806 C 206.793 168.739 201.927 169.472 201.793 169.272 C 201.593 169.139 202.927 166.072 204.66 162.606 C 207.327 157.206 208.26 156.006 210.527 154.739 C 211.994 153.939 216.06 151.471 219.527 149.272 L 225.86 145.339 L 228.193 148.139 C 229.46 149.739 233.66 155.339 237.527 160.672 L 244.527 170.406 L 264.127 177.539 C 274.86 181.539 284.327 184.806 285.06 184.939 C 286.193 185.139 286.86 184.072 289.26 178.072 L 292.06 171.005 L 288.86 160.739 C 282.127 139.272 279.66 132.539 277.793 131.072 L 276.06 129.672 L 289.06 120.872 L 302.127 112.139 L 310.66 118.272 C 315.327 121.672 322.06 126.605 325.527 129.272 L 331.86 134.139 L 332.06 130.739 C 332.327 126.606 332.527 126.872 321.26 117.539 C 316.527 113.672 310.127 108.272 306.993 105.606 C 303.86 103.006 300.993 100.806 300.593 100.806 C 300.127 100.806 293.46 106.472 285.727 113.472 C 277.927 120.405 271.46 126.139 271.26 126.139 C 271.06 126.139 266.927 123.139 262.127 119.406 C 249.993 110.139 251.593 110.739 247.393 114.206 C 245.46 115.872 241.06 119.406 237.727 122.072 L 231.527 126.939 L 229.727 125.606 C 228.66 124.872 224.26 122.472 219.86 120.139 C 215.46 117.872 209.193 114.472 205.86 112.539 L 199.86 109.139 L 238.193 108.806 L 276.527 108.472 L 276.527 -0.194 L 221.66 -0.394 L 166.86 -0.527 L 166.994 53.939 Z M 225.727 37.406 L 242.194 49.006 L 242.194 58.539 L 234.394 63.939 C 230.061 66.939 221.261 73.139 214.861 77.739 C 208.461 82.339 202.994 86.139 202.727 86.139 C 202.394 86.139 202.194 83.006 202.194 79.206 L 202.194 72.206 L 209.394 67.273 C 222.394 58.34 227.461 54.74 227.861 54.206 C 228.261 53.539 223.394 49.873 211.061 41.473 C 206.061 38.073 202.794 35.406 202.594 34.54 C 202.394 33.806 202.394 30.606 202.527 27.473 C 202.727 24.34 202.861 21.673 202.861 21.606 C 202.861 21.473 204.261 22.339 206.061 23.606 C 207.794 24.873 216.594 31.073 225.727 37.406 M 258.794 134.739 C 261.727 135.473 264.394 136.206 264.727 136.406 C 265.527 136.873 267.727 147.406 267.461 149.206 C 267.194 150.539 266.861 150.473 261.461 147.406 L 255.727 144.206 L 254.327 139.206 C 252.794 134.006 252.661 133.473 253.127 133.473 C 253.327 133.473 255.861 134.073 258.794 134.74 M 568.727 38.073 C 560.06 40.539 552.727 42.739 552.527 42.939 C 552.26 43.206 551.994 49.073 551.927 56.139 C 551.794 63.139 551.46 69.139 551.127 69.473 C 550.794 69.807 546.06 70.206 540.594 70.273 L 530.661 70.473 L 530.394 83.673 C 530.194 90.94 530.261 97.606 530.461 98.54 C 530.861 100.073 530.927 100.14 541.194 100.273 L 551.461 100.473 L 551.727 133.806 C 551.927 162.339 552.127 167.739 553.127 171.139 C 558.794 191.673 574.861 199.939 604.394 197.539 C 609.794 197.139 614.661 196.606 615.194 196.406 C 616.061 196.073 616.194 193.673 616.194 181.739 L 616.194 167.473 L 605.995 167.606 C 596.128 167.739 595.662 167.739 592.062 165.939 C 585.662 162.806 585.928 164.006 585.662 129.606 L 585.462 100.139 L 615.528 100.139 L 615.528 69.406 L 600.728 69.539 L 585.862 69.672 L 585.662 51.539 C 585.595 41.606 585.262 33.473 584.995 33.539 C 584.728 33.539 577.395 35.606 568.728 38.073 M 681.194 34.006 C 680.461 34.139 673.727 36.006 666.194 38.139 C 658.661 40.272 651.927 42.139 651.194 42.273 C 649.927 42.473 649.861 43.139 649.527 56.139 L 649.194 69.806 L 638.727 70.006 L 628.194 70.206 L 628.194 100.14 L 649.527 100.14 L 649.527 132.273 C 649.527 152.873 649.794 165.94 650.26 168.74 C 652.46 181.74 661.594 192.073 674.127 195.74 C 680.727 197.673 691.994 198.34 702.66 197.54 C 707.927 197.073 712.66 196.606 713.127 196.406 C 713.727 196.139 713.927 192.739 713.86 181.939 L 713.727 167.806 L 702.794 167.473 C 690.994 167.073 688.994 166.54 686.261 163.073 C 685.461 162.073 684.527 160.14 684.194 158.806 C 683.794 157.273 683.527 145.14 683.527 128.34 L 683.46 100.473 L 698.194 100.273 L 712.86 100.14 L 712.86 69.406 L 698.127 69.606 L 683.394 69.806 L 683.394 51.94 C 683.327 42.14 683.127 34.005 682.927 33.872 C 682.727 33.805 681.927 33.805 681.194 34.005 M 785.527 66.938 C 778.66 67.472 769.794 70.005 763.327 73.206 C 741.994 83.872 728.927 104.672 727.727 129.805 C 726.727 150.339 733.26 168.339 746.527 181.805 C 756.06 191.472 764.594 196.206 777.327 198.738 C 797.327 202.805 817.46 197.738 828.86 185.805 L 831.194 183.405 L 831.527 190.272 L 831.86 197.139 L 847.727 197.272 C 856.46 197.339 864.06 197.205 864.594 197.005 C 865.394 196.738 865.527 187.938 865.527 133.405 L 865.527 70.138 L 831.527 70.138 L 831.527 83.006 L 828.527 80.206 C 817.327 69.94 803.127 65.54 785.527 66.94 M 802.86 98.14 C 809.26 99.14 817.26 103.273 821.327 107.673 C 830.194 117.406 833.594 131.606 829.994 143.94 C 826.527 155.873 819.594 163.273 808.194 167.073 C 801.194 169.406 796.26 169.806 789.86 168.54 C 778.46 166.34 769.66 159.673 765.127 149.806 C 762.06 143.14 761.26 138.806 761.66 130.74 C 762.06 122.606 763.394 118.606 767.86 112.073 C 775.394 101.006 788.26 95.873 802.86 98.14 M 424.86 67.806 C 404.327 71.939 386.327 86.873 378.46 106.139 C 374.327 116.339 372.394 133.406 374.127 144.673 C 377.861 168.806 391.994 187.673 412.194 195.473 C 419.927 198.406 424.861 199.473 433.527 199.873 C 450.594 200.806 465.261 195.873 474.527 186.206 C 475.927 184.739 477.327 183.473 477.594 183.473 C 477.861 183.473 478.061 186.539 477.994 190.273 L 477.861 197.139 L 511.061 197.139 L 511.127 133.939 C 511.194 99.139 510.994 70.406 510.794 70.073 C 510.594 69.74 509.394 69.606 508.127 69.739 C 506.861 69.939 499.461 70.073 491.727 70.073 L 477.527 70.139 L 477.527 83.006 L 474.261 79.939 C 467.927 74.006 459.394 69.673 450.327 67.806 C 444.327 66.606 430.927 66.606 424.861 67.806 M 451.061 98.473 C 466.661 101.739 477.527 116.406 477.527 134.139 C 477.527 140.873 476.327 145.473 472.994 151.473 C 466.327 163.673 452.661 170.473 438.394 168.806 C 432.127 168.073 428.661 166.939 423.527 163.806 C 411.394 156.473 405.061 140.139 408.261 124.673 C 410.261 115.14 417.194 105.673 425.261 101.606 C 428.661 99.873 430.661 99.339 437.861 97.873 C 440.861 97.273 446.794 97.54 451.061 98.473" id="object-0"/>
</svg>